<svg width="47" height="16" viewBox="0 0 47 16" fill="none" xmlns="http://www.w3.org/2000/svg">
<path d="M16.8143 8.03551C16.8143 10.5677 16.8143 13.0998 16.8143 15.632C16.8143 15.9915 16.8143 15.9915 16.5169 15.9915C15.3272 15.9915 14.1376 15.9915 12.948 15.9915C12.5831 15.9915 12.6076 16.0489 12.6076 15.5784C12.6076 12.6714 12.6076 9.76824 12.6107 6.86124C12.6107 6.66999 12.5954 6.52846 12.3991 6.57436C12.2888 6.60114 12.2918 6.72354 12.2704 6.81534C12.0036 7.88251 11.7399 8.94969 11.4732 10.0207C11.001 11.9255 10.5227 13.8266 10.0567 15.7352C10.0076 15.9418 9.9279 15.9992 9.76233 15.9953C8.86397 15.9877 7.96869 15.9839 7.07033 15.9953C6.88023 15.9992 6.80665 15.915 6.75453 15.697C6.034 12.7709 5.30735 9.84856 4.58069 6.92626C4.55923 6.83446 4.5347 6.74266 4.50711 6.65469C4.47031 6.53229 4.38446 6.56671 4.31088 6.56671C4.22503 6.56671 4.21276 6.64321 4.21276 6.72736C4.21276 6.81534 4.21276 6.89949 4.21276 6.98746C4.21276 9.86769 4.21276 12.7441 4.21276 15.6243C4.21276 15.9839 4.21276 15.9877 3.91536 15.9877C2.69813 15.9877 1.48091 15.9839 0.263681 15.9915C0.0674533 15.9992 0 15.9418 0 15.6855C0.00613212 10.5677 0.00613212 5.44981 0 0.331962C0 0.0603867 0.0705193 0.00301167 0.272879 0.00301167C1.69246 0.0106617 3.10898 0.0144867 4.52857 0.00301167C5.42999 -0.00463833 6.034 0.523212 6.38353 1.52919C6.64108 2.27124 6.77599 3.06301 6.95689 3.83566C7.37387 5.60664 7.77552 7.38526 8.18331 9.16006C8.21704 9.30924 8.23543 9.45459 8.41633 9.45076C8.58803 9.44694 8.60029 9.30924 8.63095 9.16771C9.17365 6.84594 9.71634 4.52416 10.259 2.20239C10.3571 1.78546 10.4798 1.38001 10.6821 1.02046C11.0286 0.404637 11.5069 0.0374367 12.1017 0.0259617C13.6194 -0.000813327 15.1371 0.0144867 16.6518 0.00683667C16.8449 0.00683667 16.8143 0.163662 16.8143 0.305187C16.8143 2.29801 16.8143 4.29466 16.8143 6.28749C16.8143 6.87271 16.8143 7.45411 16.8143 8.03551Z" fill="#0F754E"/>
<path d="M18.5619 8.00011C18.5619 5.45266 18.5619 2.90138 18.5619 0.353934C18.5619 0.0135094 18.5619 0.00968437 18.8379 0.00968437C20.0674 0.00968437 21.2999 0.00968437 22.5294 0.00968437C22.8391 0.00968437 22.8421 0.00968437 22.8421 0.388359C22.8421 3.29153 22.8421 6.19853 22.8421 9.10171C22.8421 9.41536 22.8973 9.48038 23.1089 9.43066C23.2131 9.40771 23.2315 9.30061 23.2622 9.20881C23.7987 7.75148 24.3353 6.29416 24.8688 4.83683C25.2521 3.79643 25.6322 2.75603 26.0124 1.71563C26.3037 0.916209 26.7728 0.357759 27.4474 0.0900094C27.5884 0.0326344 27.7294 0.00968437 27.8797 0.00968437C29.1092 0.0135094 30.3417 0.0173344 31.5712 0.00585938C31.7705 0.00585938 31.8318 0.0708844 31.8318 0.327159C31.8257 5.44118 31.8257 10.559 31.8318 15.6731C31.8318 15.9523 31.7582 15.9982 31.5559 15.9982C30.3111 15.9867 29.0662 15.9944 27.8214 15.9944C27.5363 15.9944 27.5332 15.9944 27.5332 15.6463C27.5332 12.724 27.5332 9.80168 27.5332 6.87938C27.5332 6.58868 27.4566 6.50836 27.2573 6.57338C27.1561 6.60781 27.1438 6.71491 27.1101 6.80671C26.457 8.61593 25.8039 10.429 25.1539 12.2382C24.9056 12.9267 24.6695 13.619 24.4058 14.2999C23.9827 15.3977 23.2898 15.9944 22.2933 15.9944C21.1313 15.9944 19.9723 15.9867 18.8103 15.9982C18.6079 16.002 18.5527 15.9217 18.5558 15.6769C18.565 13.1141 18.5619 10.559 18.5619 8.00011Z" fill="#0F754E"/>
<path d="M38.1296 0.019125C39.6105 0.019125 41.0914 -0.00765 42.5723 0.026775C44.5039 0.072675 46.1105 1.52618 46.7452 3.74085C46.9874 4.59 47.0518 5.45828 46.9598 6.35333C46.9383 6.55988 46.877 6.61725 46.7115 6.61725C45.3563 6.6096 44.0011 6.61343 42.6459 6.61725C41.401 6.61725 40.1562 6.59048 38.9145 6.62873C37.0227 6.6861 35.5909 5.6457 34.4748 3.83265C33.8279 2.78078 33.4477 1.58355 33.3158 0.263925C33.2882 0.034425 33.3373 0 33.4998 0C35.042 0.00765 36.5873 0.003825 38.1296 0.003825C38.1296 0.00765 38.1296 0.011475 38.1296 0.019125Z" fill="url(#paint0_linear_413_968)"/>
<path d="M40.0826 7.60734C42.1675 7.60734 44.2555 7.60734 46.3404 7.60734C46.647 7.60734 46.6531 7.61499 46.5244 7.95542C45.9234 9.51984 44.8993 10.4455 43.6024 10.9504C43.0934 11.1455 42.5722 11.2258 42.0387 11.222C40.6467 11.2181 39.2578 11.2181 37.8658 11.222C37.5929 11.222 37.5929 11.222 37.5929 11.5624C37.5929 12.9317 37.5899 14.3011 37.596 15.6704C37.596 15.9114 37.5561 15.9994 37.3476 15.9994C36.1519 15.9879 34.9561 15.9879 33.7603 15.9994C33.558 16.0032 33.5059 15.9229 33.5059 15.6743C33.512 13.0924 33.512 10.5067 33.5059 7.92482C33.5059 7.67237 33.5641 7.60352 33.7634 7.60352C35.8698 7.61117 37.9762 7.60734 40.0826 7.60734Z" fill="#0F754E"/>
<defs>
<linearGradient id="paint0_linear_413_968" x1="40.1542" y1="0" x2="40.1542" y2="6.63098" gradientUnits="userSpaceOnUse">
<stop stop-color="#03ACFE"/>
<stop offset="1" stop-color="#1D61DA"/>
</linearGradient>
</defs>
</svg>
