<svg width="21" height="21" viewBox="0 0 21 21" fill="none" xmlns="http://www.w3.org/2000/svg">
<path d="M10.5 0.5C16.023 0.5 20.5 4.977 20.5 10.5C20.5 16.023 16.023 20.5 10.5 20.5C4.977 20.5 0.5 16.023 0.5 10.5C0.5 4.977 4.977 0.5 10.5 0.5ZM10.5 2C8.24566 2 6.08365 2.89553 4.48959 4.48959C2.89553 6.08365 2 8.24566 2 10.5C2 12.7543 2.89553 14.9163 4.48959 16.5104C6.08365 18.1045 8.24566 19 10.5 19C12.7543 19 14.9163 18.1045 16.5104 16.5104C18.1045 14.9163 19 12.7543 19 10.5C19 8.24566 18.1045 6.08365 16.5104 4.48959C14.9163 2.89553 12.7543 2 10.5 2V2ZM10.5 5.5C10.6989 5.5 10.8897 5.57902 11.0303 5.71967C11.171 5.86032 11.25 6.05109 11.25 6.25V9.75H14.75C14.9489 9.75 15.1397 9.82902 15.2803 9.96967C15.421 10.1103 15.5 10.3011 15.5 10.5C15.5 10.6989 15.421 10.8897 15.2803 11.0303C15.1397 11.171 14.9489 11.25 14.75 11.25H11.25V14.75C11.25 14.9489 11.171 15.1397 11.0303 15.2803C10.8897 15.421 10.6989 15.5 10.5 15.5C10.3011 15.5 10.1103 15.421 9.96967 15.2803C9.82902 15.1397 9.75 14.9489 9.75 14.75V11.25H6.25C6.05109 11.25 5.86032 11.171 5.71967 11.0303C5.57902 10.8897 5.5 10.6989 5.5 10.5C5.5 10.3011 5.57902 10.1103 5.71967 9.96967C5.86032 9.82902 6.05109 9.75 6.25 9.75H9.75V6.25C9.75 6.05109 9.82902 5.86032 9.96967 5.71967C10.1103 5.57902 10.3011 5.5 10.5 5.5V5.5Z" fill="#004231"/>
</svg>
