<svg width="24" height="12" viewBox="0 0 24 12" fill="none" xmlns="http://www.w3.org/2000/svg">
<path fill-rule="evenodd" clip-rule="evenodd" d="M6.01368 0.925059L5.95961 0.862254C5.72529 0.621932 5.35659 0.603445 5.1016 0.806795L5.04037 0.862254L0.490368 5.52892L0.46346 5.55823L0.427605 5.60345L0.381024 5.67762L0.346284 5.75277L0.323287 5.823L0.304477 5.92159L0.299988 6.00032L0.3018 6.05048L0.313144 6.13414L0.332318 6.20842L0.360876 6.28247L0.394885 6.34746L0.442785 6.41729L0.490368 6.47173L5.04037 11.1384C5.29421 11.3987 5.70577 11.3987 5.95961 11.1384C6.19392 10.8981 6.21195 10.5199 6.01368 10.2584L5.95961 10.1956L2.52039 6.66699H22.4C22.759 6.66699 23.05 6.36851 23.05 6.00032C23.05 5.63213 22.759 5.33366 22.4 5.33366H2.51909L5.95961 1.80506C6.19392 1.56474 6.21195 1.18659 6.01368 0.925059Z" fill="#00A023"/>
</svg>
