<svg width="16" height="16" viewBox="0 0 16 16" fill="none" xmlns="http://www.w3.org/2000/svg">
<path d="M2.00016 12.0002L2.07791 11.9957C2.38396 11.9601 2.6268 11.7173 2.66234 11.4112L2.66683 11.3335V2.66683H11.3335L11.4112 2.66234C11.7428 2.62383 12.0002 2.34205 12.0002 2.00016C12.0002 1.65827 11.7428 1.37649 11.4112 1.33798L11.3335 1.3335H2.00016L1.92242 1.33798C1.61636 1.37353 1.37353 1.61636 1.33798 1.92242L1.3335 2.00016V11.3335L1.33798 11.4112C1.37353 11.7173 1.61636 11.9601 1.92242 11.9957L2.00016 12.0002ZM14.0002 14.6668L14.0779 14.6623C14.384 14.6268 14.6268 14.384 14.6623 14.0779L14.6668 14.0002V4.66683L14.6623 4.58908C14.6298 4.30853 14.423 4.08111 14.153 4.01777L14.0779 4.00465L14.0002 4.00016H4.66683L4.58908 4.00465C4.28303 4.0402 4.0402 4.28303 4.00465 4.58908L4.00016 4.66683V14.0002L4.00465 14.0779C4.03723 14.3585 4.24399 14.5859 4.51397 14.6492L4.58908 14.6623L4.66683 14.6668H14.0002ZM5.3335 13.3335V5.3335H13.3335V13.3335H5.3335Z" fill="#004231"/>
</svg>
