<svg width="41" height="41" viewBox="0 0 41 41" fill="none" xmlns="http://www.w3.org/2000/svg">
<path d="M6.82484 18.9717C6.56836 18.9717 6.39909 19.2383 6.50883 19.4701C7.56794 21.7074 11.8615 30.7677 12.5275 32.0206C13.2881 33.4518 14.556 33.1992 15.1476 31.768C15.5755 30.733 16.4454 28.5091 16.8942 27.3573C17.0037 27.0763 17.3926 27.0554 17.5297 27.324C18.1263 28.4928 19.3223 30.8464 19.8807 32.0206C20.6414 33.6201 21.9938 33.1992 22.5009 32.0206C22.8969 31.1002 23.2929 30.2312 23.4474 29.8945C23.4903 29.8012 23.4903 29.6938 23.4471 29.6007L18.6222 19.1744C18.565 19.0508 18.4412 18.9717 18.305 18.9717H14.1817C13.9244 18.9717 13.7553 19.2404 13.8667 19.4725L15.4208 22.7091C15.4622 22.7954 15.4664 22.8949 15.4324 22.9845L14.5985 25.1798C14.4884 25.4695 14.0836 25.4832 13.9542 25.2016L11.1842 19.1752C11.1272 19.0512 11.0031 18.9717 10.8666 18.9717H6.82484Z" fill="#F2E9B6"/>
<path d="M39.0101 20.7194C39.0101 30.8211 30.8211 39.0101 20.7194 39.0101C10.6177 39.0101 2.42871 30.8211 2.42871 20.7194C2.42871 10.6177 10.6177 2.42871 20.7194 2.42871C30.8211 2.42871 39.0101 10.6177 39.0101 20.7194Z" stroke="#F2E9B6" stroke-width="2.91253"/>
<path d="M10.0596 14.7779C14.9526 8.48682 25.3795 9.06932 29.3988 13.0886C33.4181 17.1079 34.7578 22.7 31.6123 26.661C28.6055 30.4473 23.5155 30.5056 21.7097 26.428C20.7194 23.5155 22.8164 21.768 24.564 21.7097C26.3115 21.6515 27.3017 23.2825 26.9522 24.7387C26.6027 26.195 24.2145 26.0785 24.2727 24.4475" stroke="#F2E9B6" stroke-width="2.09702" stroke-linecap="round"/>
<path d="M25.4956 15.3601C24.5636 15.0106 23.7481 15.3601 23.3403 15.9427C22.9326 16.5252 23.3403 16.7582 23.6898 16.8164C24.0393 16.8747 23.8646 17.2824 24.3306 17.5154C24.7966 17.7484 25.0296 17.3989 25.3208 17.5154C25.6121 17.6319 25.8451 18.2727 26.1946 17.6319C26.5441 16.9912 26.4276 15.7097 25.4956 15.3601Z" fill="#F2E9B6"/>
</svg>
