<svg width="8" height="8" viewBox="0 0 8 8" fill="none" xmlns="http://www.w3.org/2000/svg">
<path d="M4 0.5C4.92826 0.5 5.8185 0.868749 6.47487 1.52513C7.13125 2.1815 7.5 3.07174 7.5 4C7.5 4.92826 7.13125 5.8185 6.47487 6.47487C5.8185 7.13125 4.92826 7.5 4 7.5C3.07174 7.5 2.1815 7.13125 1.52513 6.47487C0.868749 5.8185 0.5 4.92826 0.5 4C0.5 3.07174 0.868749 2.1815 1.52513 1.52513C2.1815 0.868749 3.07174 0.5 4 0.5ZM4 3.5755L3.187 2.7625C3.13071 2.70621 3.05436 2.67458 2.97475 2.67458C2.89514 2.67458 2.81879 2.70621 2.7625 2.7625C2.70621 2.81879 2.67458 2.89514 2.67458 2.97475C2.67458 3.05436 2.70621 3.13071 2.7625 3.187L3.5755 4L2.7625 4.813C2.73463 4.84087 2.71252 4.87396 2.69743 4.91038C2.68235 4.9468 2.67458 4.98583 2.67458 5.02525C2.67458 5.06467 2.68235 5.1037 2.69743 5.14012C2.71252 5.17654 2.73463 5.20963 2.7625 5.2375C2.79037 5.26537 2.82346 5.28748 2.85988 5.30257C2.8963 5.31765 2.93533 5.32542 2.97475 5.32542C3.01417 5.32542 3.0532 5.31765 3.08962 5.30257C3.12604 5.28748 3.15913 5.26537 3.187 5.2375L4 4.4245L4.813 5.2375C4.84087 5.26537 4.87396 5.28748 4.91038 5.30257C4.9468 5.31765 4.98583 5.32542 5.02525 5.32542C5.06467 5.32542 5.1037 5.31765 5.14012 5.30257C5.17654 5.28748 5.20963 5.26537 5.2375 5.2375C5.26537 5.20963 5.28748 5.17654 5.30257 5.14012C5.31765 5.1037 5.32542 5.06467 5.32542 5.02525C5.32542 4.98583 5.31765 4.9468 5.30257 4.91038C5.28748 4.87396 5.26537 4.84087 5.2375 4.813L4.4245 4L5.2375 3.187C5.26537 3.15913 5.28748 3.12604 5.30257 3.08962C5.31765 3.0532 5.32542 3.01417 5.32542 2.97475C5.32542 2.93533 5.31765 2.8963 5.30257 2.85988C5.28748 2.82346 5.26537 2.79037 5.2375 2.7625C5.20963 2.73463 5.17654 2.71252 5.14012 2.69743C5.1037 2.68235 5.06467 2.67458 5.02525 2.67458C4.98583 2.67458 4.9468 2.68235 4.91038 2.69743C4.87396 2.71252 4.84087 2.73463 4.813 2.7625L4 3.5755Z" fill="#EB5757"/>
</svg>
