<svg width="12" height="14" viewBox="0 0 12 14" fill="none" xmlns="http://www.w3.org/2000/svg">
<path d="M9.88889 6H2.11111C1.49746 6 1 6.52233 1 7.16667V11.8333C1 12.4777 1.49746 13 2.11111 13H9.88889C10.5025 13 11 12.4777 11 11.8333V7.16667C11 6.52233 10.5025 6 9.88889 6Z" stroke="#00A023" stroke-width="1.5" stroke-linecap="round" stroke-linejoin="round"/>
<path d="M3 6V2.875C3 2.37772 3.15804 1.90081 3.43934 1.54917C3.72064 1.19754 4.10218 1 4.5 1H7.5C7.89782 1 8.27936 1.19754 8.56066 1.54917C8.84196 1.90081 9 2.37772 9 2.875V3.5" stroke="#00A023" stroke-width="1.5" stroke-linecap="round" stroke-linejoin="round"/>
</svg>
