<svg width="8" height="8" viewBox="0 0 8 8" fill="none" xmlns="http://www.w3.org/2000/svg">
<path fill-rule="evenodd" clip-rule="evenodd" d="M3.99998 0.333374C1.97498 0.333374 0.333313 1.97504 0.333313 4.00004C0.333313 6.02504 1.97498 7.66671 3.99998 7.66671C6.02498 7.66671 7.66665 6.02504 7.66665 4.00004C7.66665 1.97504 6.02498 0.333374 3.99998 0.333374ZM5.58931 3.38004C5.61858 3.34659 5.64086 3.30762 5.65484 3.26543C5.66883 3.22324 5.67423 3.17868 5.67074 3.13437C5.66724 3.09006 5.65493 3.0469 5.63451 3.00742C5.61408 2.96794 5.58597 2.93294 5.55183 2.90449C5.51768 2.87603 5.47819 2.8547 5.43568 2.84173C5.39317 2.82876 5.34849 2.82443 5.30427 2.82898C5.26006 2.83354 5.21721 2.84689 5.17823 2.86825C5.13925 2.88961 5.10494 2.91856 5.07731 2.95337L3.64398 4.67304L2.90231 3.93104C2.83945 3.87032 2.75525 3.83672 2.66785 3.83748C2.58045 3.83824 2.49684 3.8733 2.43504 3.9351C2.37324 3.9969 2.33818 4.08051 2.33742 4.16791C2.33666 4.25531 2.37026 4.33951 2.43098 4.40237L3.43098 5.40237C3.46373 5.43511 3.50294 5.46066 3.54612 5.47739C3.58929 5.49413 3.63548 5.50169 3.68174 5.49959C3.72799 5.49749 3.77331 5.48577 3.81478 5.46519C3.85626 5.44461 3.893 5.41561 3.92265 5.38004L5.58931 3.38004Z" fill="#00A023"/>
</svg>
