<svg width="25" height="25" viewBox="0 0 25 25" fill="none" xmlns="http://www.w3.org/2000/svg">
<path d="M4.49495 11.7831C4.34106 11.7831 4.2395 11.9431 4.30534 12.0822C4.94081 13.4245 7.51696 18.8607 7.91653 19.6124C8.37294 20.4711 9.13362 20.3196 9.48861 19.4609C9.74533 18.8399 10.2673 17.5055 10.5366 16.8144C10.6023 16.6458 10.8356 16.6333 10.9179 16.7945C11.2758 17.4957 11.9935 18.9079 12.3285 19.6124C12.7849 20.5722 13.5963 20.3196 13.9006 19.6124C14.1382 19.0602 14.3758 18.5388 14.4685 18.3368C14.4942 18.2808 14.4942 18.2164 14.4683 18.1605L11.5734 11.9047C11.5391 11.8306 11.4648 11.7831 11.3831 11.7831H8.9091C8.75467 11.7831 8.65322 11.9443 8.72006 12.0836L9.6525 14.0255C9.67737 14.0773 9.6799 14.137 9.6595 14.1907L9.15913 15.5079C9.09309 15.6818 8.85023 15.69 8.77256 15.521L7.11055 11.9052C7.07634 11.8308 7.00192 11.7831 6.92001 11.7831H4.49495Z" fill="#00A023"/>
<path d="M23.806 12.8316C23.806 18.8926 18.8926 23.806 12.8316 23.806C6.77059 23.806 1.85718 18.8926 1.85718 12.8316C1.85718 6.77059 6.77059 1.85718 12.8316 1.85718C18.8926 1.85718 23.806 6.77059 23.806 12.8316Z" stroke="#00A023" stroke-width="1.74752"/>
<path d="M13.4256 16.2568L12.83 16.4593L12.839 16.4858L12.8504 16.5115L13.4256 16.2568ZM19.3672 16.3966L18.8745 16.0053L19.3672 16.3966ZM18.0391 8.25312L18.4839 7.80828L18.0391 8.25312ZM5.93896 8.88045C5.72565 9.15471 5.77506 9.54996 6.04931 9.76327C6.32357 9.97658 6.71882 9.92717 6.93213 9.65292L5.93896 8.88045ZM15.5921 15.0909C15.6045 14.7437 15.3331 14.4521 14.9859 14.4397C14.6387 14.4273 14.3471 14.6988 14.3347 15.046L15.5921 15.0909ZM16.5711 15.2432L17.1829 15.39L17.1829 15.39L16.5711 15.2432ZM15.1172 12.797C14.4084 12.8206 13.6546 13.1791 13.1664 13.8166C12.658 14.4805 12.4705 15.4018 12.83 16.4593L14.0212 16.0542C13.7866 15.3642 13.9311 14.8874 14.1654 14.5815C14.4199 14.2492 14.8195 14.0659 15.1591 14.0545L15.1172 12.797ZM12.8504 16.5115C13.4933 17.9633 14.7518 18.7091 16.1188 18.7251C17.4634 18.7408 18.8538 18.0547 19.8598 16.7878L18.8745 16.0053C18.0765 17.0102 17.0378 17.4775 16.1335 17.467C15.2516 17.4567 14.4414 16.9968 14.0008 16.002L12.8504 16.5115ZM19.8598 16.7878C22.0277 14.0579 21.0144 10.3388 18.4839 7.80828L17.5942 8.69797C19.8868 10.9906 20.4813 13.982 18.8745 16.0053L19.8598 16.7878ZM18.4839 7.80828C17.1169 6.44124 14.7566 5.72417 12.4105 5.8114C10.0468 5.89929 7.55076 6.80813 5.93896 8.88045L6.93213 9.65292C8.25616 7.9506 10.3561 7.14687 12.4573 7.06874C14.5761 6.98996 16.5497 7.65343 17.5942 8.69797L18.4839 7.80828ZM14.3347 15.046C14.32 15.4573 14.464 15.8191 14.7293 16.08C14.9837 16.3302 15.3127 16.4524 15.6251 16.4775C16.2299 16.5262 16.9876 16.2036 17.1829 15.39L15.9594 15.0964C15.9482 15.143 15.9271 15.1676 15.8955 15.1871C15.8555 15.2119 15.7935 15.2288 15.726 15.2234C15.6583 15.2179 15.6225 15.1938 15.6115 15.1829C15.6071 15.1786 15.6038 15.1741 15.6007 15.1661C15.5976 15.158 15.5905 15.1353 15.5921 15.0909L14.3347 15.046ZM17.1829 15.39C17.4708 14.1905 16.6581 12.7457 15.1172 12.797L15.1591 14.0545C15.7153 14.036 16.0909 14.5483 15.9594 15.0964L17.1829 15.39Z" fill="#00A023"/>
<path d="M15.6974 9.61614C15.1382 9.40644 14.6489 9.61614 14.4042 9.96564C14.1596 10.3151 14.4042 10.4549 14.6139 10.4899C14.8236 10.5248 14.7188 10.7695 14.9984 10.9093C15.278 11.0491 15.4178 10.8394 15.5925 10.9093C15.7673 10.9792 15.9071 11.3637 16.1168 10.9792C16.3265 10.5947 16.2566 9.82584 15.6974 9.61614Z" fill="#00A023"/>
</svg>
