<svg width="25" height="24" viewBox="0 0 25 24" fill="none" xmlns="http://www.w3.org/2000/svg">
<rect x="7.05615" y="1" width="12" height="22" rx="2" stroke="#004231" stroke-width="2"/>
<path d="M15 23C15 20.7909 16.7909 19 19 19" stroke="#004231" stroke-width="2"/>
<path d="M15 1C15 3.20914 16.7909 5 19 5" stroke="#004231" stroke-width="2"/>
<path d="M11 23C11 20.7909 9.20914 19 7 19" stroke="#004231" stroke-width="2"/>
<path d="M11 1C11 3.20914 9.20914 5 7 5" stroke="#004231" stroke-width="2"/>
<path d="M16.736 12C16.736 13.3718 15.2544 14.84 12.936 14.84C10.6175 14.84 9.13599 13.3718 9.13599 12C9.13599 10.6282 10.6175 9.16003 12.936 9.16003C15.2544 9.16003 16.736 10.6282 16.736 12Z" stroke="#004231" stroke-width="2"/>
<path d="M21 16C22.6569 16 24 14.2091 24 12C24 9.79086 22.6569 8 21 8" stroke="#004231" stroke-width="2"/>
<line x1="21" y1="8" x2="20" y2="8" stroke="#004231" stroke-width="2"/>
<line x1="6.05615" y1="8.15759" x2="3.23137" y2="8.15759" stroke="#004231" stroke-width="2"/>
<line x1="3.80396" y1="6.34463" x2="1.98856" y2="8.16003" stroke="#004231" stroke-width="2" stroke-linecap="round"/>
<line x1="1" y1="-1" x2="3.56736" y2="-1" transform="matrix(-0.707107 -0.707107 -0.707107 0.707107 3.80396 11.3896)" stroke="#004231" stroke-width="2" stroke-linecap="round"/>
<line x1="21" y1="16" x2="20" y2="16" stroke="#004231" stroke-width="2"/>
<line x1="6.05615" y1="15.8564" x2="1" y2="15.8564" stroke="#004231" stroke-width="2"/>
</svg>
