<svg width="20" height="20" viewBox="0 0 20 20" fill="none" xmlns="http://www.w3.org/2000/svg">
<path fill-rule="evenodd" clip-rule="evenodd" d="M10.9703 10.9707L18.4557 10.9707C19.0087 10.9707 19.4556 10.5239 19.4556 9.97089C19.4556 9.41794 19.0087 8.97104 18.4557 8.97104L10.9703 8.97104L10.9703 1.48561C10.9703 0.932654 10.5234 0.485763 9.97046 0.485763C9.4175 0.485763 8.97061 0.932654 8.97061 1.48561L8.97061 8.97104L1.48518 8.97104C0.932221 8.97104 0.485328 9.41794 0.485328 9.97089C0.485329 10.2467 0.597052 10.497 0.778071 10.678C0.95909 10.859 1.20941 10.9707 1.48518 10.9707L8.97061 10.9707L8.97061 18.4562C8.97061 18.7319 9.08233 18.9823 9.26335 19.1633C9.44437 19.3443 9.69469 19.456 9.97046 19.456C10.5234 19.456 10.9703 19.0091 10.9703 18.4562L10.9703 10.9707Z" fill="#004231"/>
</svg>
