<svg width="21" height="16" viewBox="0 0 21 16" fill="none" xmlns="http://www.w3.org/2000/svg">
<path d="M15.002 9C15.5543 9 16.002 9.44772 16.002 10C16.002 10.5128 15.616 10.9355 15.1186 10.9933L15.002 11H3.417L6.70911 14.2929C7.0696 14.6534 7.09733 15.2206 6.7923 15.6129L6.70911 15.7071C6.34863 16.0676 5.7814 16.0953 5.38911 15.7903L5.2949 15.7071L0.294898 10.7071C-0.307677 10.1045 0.0743371 9.09282 0.888374 9.00598L1.002 9H15.002ZM14.6129 0.209704L14.7071 0.292893L19.7071 5.29289C20.3097 5.89547 19.9277 6.90718 19.1136 6.99402L19 7H5C4.44772 7 4 6.55228 4 6C4 5.48716 4.38604 5.06449 4.88338 5.00673L5 5H16.585L13.2929 1.70711C12.9324 1.34662 12.9047 0.779392 13.2097 0.387101L13.2929 0.292893C13.6534 -0.0675905 14.2206 -0.0953204 14.6129 0.209704Z" fill="#004231"/>
</svg>
