<svg width="24" height="25" viewBox="0 0 24 25" fill="none" xmlns="http://www.w3.org/2000/svg">
<path d="M1 22H23" stroke="#004231" stroke-width="2" stroke-linecap="round" stroke-linejoin="round"/>
<rect x="3" y="12" width="3" height="10" stroke="#004231" stroke-width="2" stroke-linejoin="round"/>
<rect x="10.5" y="14" width="3" height="8" stroke="#004231" stroke-width="2" stroke-linejoin="round"/>
<rect x="18" y="8" width="3" height="14" stroke="#004231" stroke-width="2" stroke-linejoin="round"/>
<path d="M3.53191 7.90503C3.12486 8.2783 3.09746 8.91087 3.47073 9.31792C3.84399 9.72498 4.47657 9.75237 4.88362 9.3791L3.53191 7.90503ZM7.49995 5.62315L8.10687 4.82839C7.72176 4.53431 7.18123 4.55863 6.8241 4.88612L7.49995 5.62315ZM11.922 8.99999L11.3151 9.79475C11.7132 10.0988 12.2749 10.0613 12.6291 9.70709L11.922 8.99999ZM19.9975 2.3387C20.388 1.94817 20.388 1.31501 19.9975 0.924484C19.6069 0.53396 18.9738 0.533961 18.5833 0.924486L19.9975 2.3387ZM4.88362 9.3791L8.17581 6.36019L6.8241 4.88612L3.53191 7.90503L4.88362 9.3791ZM6.89304 6.41792L11.3151 9.79475L12.5289 8.20522L8.10687 4.82839L6.89304 6.41792ZM12.6291 9.70709L19.9975 2.3387L18.5833 0.924486L11.2149 8.29288L12.6291 9.70709Z" fill="#004231"/>
</svg>
