<svg width="12" height="15" viewBox="0 0 12 15" fill="none" xmlns="http://www.w3.org/2000/svg">
<path fill-rule="evenodd" clip-rule="evenodd" d="M6.00033 0.833008C7.79283 0.833008 9.25487 2.24788 9.33058 4.02175L9.33366 4.16634V6.16634C10.4382 6.16634 11.3337 7.06177 11.3337 8.16634V12.1663C11.3337 13.2709 10.4382 14.1663 9.33366 14.1663H2.66699C1.56242 14.1663 0.666992 13.2709 0.666992 12.1663V8.16634C0.666992 7.06177 1.56242 6.16634 2.66699 6.16634V4.16634C2.66699 2.32539 4.15938 0.833008 6.00033 0.833008ZM9.33366 7.49967H2.66699C2.2988 7.49967 2.00033 7.79815 2.00033 8.16634V12.1663C2.00033 12.5345 2.2988 12.833 2.66699 12.833H9.33366C9.70185 12.833 10.0003 12.5345 10.0003 12.1663V8.16634C10.0003 7.79815 9.70185 7.49967 9.33366 7.49967ZM6.11784 2.16974L6.00033 2.16634C4.9352 2.16634 4.06455 2.99895 4.00372 4.04883L4.00033 4.16634V6.16634H8.00033V4.16634C8.00033 3.10122 7.16771 2.23057 6.11784 2.16974L6.00033 2.16634L6.11784 2.16974Z" fill="#AAC1BC"/>
</svg>
