<svg width="16" height="13" viewBox="0 0 16 13" fill="none" xmlns="http://www.w3.org/2000/svg">
<path d="M2.1816 1.0664C1.5792 1.0664 1.0912 1.544 1.0912 2.1336V10.6664C1.0912 11.256 1.5792 11.7336 2.1816 11.7336H13.8184C14.4208 11.7336 14.9088 11.256 14.9088 10.6664V2.1336C14.9088 1.544 14.4208 1.0664 13.8184 1.0664H2.1816ZM13.8184 0C15.0232 0 16 0.9552 16 2.1336V10.6664C16 11.8448 15.0232 12.8 13.8184 12.8H2.1816C0.9768 12.8 0 11.8448 0 10.6664V2.1336C0 0.9552 0.9768 0 2.1816 0H13.8184ZM6.5336 8.9064H3.2C3.12912 8.90556 3.05878 8.91869 2.99298 8.94506C2.92719 8.97143 2.86724 9.01051 2.81656 9.06007C2.76589 9.10963 2.72548 9.1687 2.69766 9.23389C2.66983 9.29908 2.65513 9.36912 2.6544 9.44C2.6544 9.7344 2.8984 9.9736 3.2 9.9736H6.5336C6.60441 9.97434 6.67467 9.96112 6.74037 9.93471C6.80608 9.90829 6.86593 9.86919 6.91652 9.81964C6.96711 9.77009 7.00744 9.71106 7.03522 9.64592C7.063 9.58078 7.07767 9.51081 7.0784 9.44C7.07767 9.36919 7.063 9.29922 7.03522 9.23408C7.00744 9.16894 6.96711 9.10991 6.91652 9.06036C6.86593 9.01081 6.80608 8.97171 6.74037 8.94529C6.67467 8.91888 6.60441 8.90566 6.5336 8.9064ZM11 2.6664C9.7808 2.6664 8.788 3.6192 8.788 4.8C8.788 5.4184 9.06 5.9744 9.4952 6.364C8.6712 6.8504 8.1216 7.7264 8.1216 8.7272C8.1216 9.0128 8.1664 9.2936 8.2536 9.5616C8.3456 9.8416 8.6528 9.9968 8.9392 9.9072C9.00679 9.88695 9.06967 9.85344 9.12417 9.80862C9.17867 9.7638 9.22369 9.70857 9.25661 9.64616C9.28953 9.58375 9.30968 9.51541 9.3159 9.44512C9.32211 9.37484 9.31426 9.30402 9.2928 9.2368C9.23933 9.07224 9.21232 8.90023 9.2128 8.7272C9.2128 7.7872 10.0104 7.0208 11 7.0208C11.9896 7.0208 12.788 7.7872 12.788 8.7272C12.788 8.8656 12.7712 9.0008 12.7376 9.132C12.7207 9.20057 12.7177 9.27181 12.7286 9.34157C12.7395 9.41134 12.7642 9.47824 12.8012 9.53838C12.8382 9.59853 12.8867 9.65072 12.9441 9.69193C13.0014 9.73313 13.0664 9.76252 13.1352 9.7784C13.2743 9.8133 13.4216 9.7921 13.5452 9.71935C13.6689 9.64661 13.7589 9.52817 13.796 9.3896C13.8512 9.1736 13.8784 8.952 13.8784 8.7272C13.8784 7.7264 13.3288 6.8504 12.5048 6.3624C12.94 5.9744 13.212 5.4184 13.212 4.8C13.212 3.6192 12.22 2.6664 11 2.6664ZM6.5336 6.1064H3.2C3.12912 6.10556 3.05878 6.11869 2.99298 6.14506C2.92719 6.17143 2.86724 6.21051 2.81656 6.26007C2.76589 6.30963 2.72548 6.3687 2.69766 6.43389C2.66983 6.49908 2.65513 6.56912 2.6544 6.64C2.6544 6.9344 2.8984 7.1736 3.2 7.1736H6.5336C6.60441 7.17434 6.67467 7.16112 6.74037 7.13471C6.80608 7.10829 6.86593 7.06919 6.91652 7.01964C6.96711 6.97009 7.00744 6.91106 7.03522 6.84592C7.063 6.78078 7.07767 6.71081 7.0784 6.64C7.07767 6.56919 7.063 6.49922 7.03522 6.43408C7.00744 6.36894 6.96711 6.30991 6.91652 6.26036C6.86593 6.21081 6.80608 6.17171 6.74037 6.14529C6.67467 6.11888 6.60441 6.10566 6.5336 6.1064ZM11 3.7336C11.6216 3.7336 12.1216 4.2136 12.1216 4.8C12.1216 5.3872 11.6216 5.8664 11 5.8664C10.3784 5.8664 9.8784 5.3864 9.8784 4.8C9.8784 4.2128 10.3784 3.7336 11 3.7336ZM6.5336 3.3064H3.2C3.12912 3.30555 3.05878 3.31869 2.99298 3.34506C2.92719 3.37143 2.86724 3.41051 2.81656 3.46007C2.76589 3.50963 2.72548 3.5687 2.69766 3.63389C2.66983 3.69908 2.65513 3.76912 2.6544 3.84C2.6544 4.1344 2.8984 4.3736 3.2 4.3736H6.5336C6.60441 4.37434 6.67467 4.36112 6.74037 4.33471C6.80608 4.30829 6.86593 4.26919 6.91652 4.21964C6.96711 4.17009 7.00744 4.11106 7.03522 4.04592C7.063 3.98078 7.07767 3.91081 7.0784 3.84C7.07767 3.76919 7.063 3.69922 7.03522 3.63408C7.00744 3.56894 6.96711 3.50991 6.91652 3.46036C6.86593 3.41081 6.80608 3.37171 6.74037 3.34529C6.67467 3.31888 6.60441 3.30566 6.5336 3.3064Z" fill="#00A023"/>
</svg>
