<svg width="14" height="14" viewBox="0 0 14 14" fill="none" xmlns="http://www.w3.org/2000/svg">
<path fill-rule="evenodd" clip-rule="evenodd" d="M6.66667 0C10.3486 0 13.3333 2.98477 13.3333 6.66667C13.3333 10.3486 10.3486 13.3333 6.66667 13.3333C2.98477 13.3333 0 10.3486 0 6.66667C0 2.98477 2.98477 0 6.66667 0ZM8.6483 7.33386H4.68504C4.759 8.66952 5.05276 9.88552 5.50221 10.7844C5.92081 11.6216 6.36811 12 6.66667 12C6.96522 12 7.41253 11.6216 7.83112 10.7844C8.28057 9.88552 8.57434 8.66952 8.6483 7.33386ZM11.9587 7.33399L9.9835 7.33417C9.90285 8.95678 9.5313 10.4082 8.97464 11.4768C10.5734 10.7077 11.7301 9.165 11.9587 7.33399ZM3.34983 7.33417L1.37468 7.33399C1.60323 9.16499 2.75995 10.7077 4.35909 11.4763C3.8369 10.4749 3.47767 9.13669 3.36834 7.63635L3.34983 7.33417ZM4.3587 1.85651L4.34126 1.86563C2.75119 2.63722 1.60215 4.17546 1.37461 5.99989L3.3498 5.99983C3.43039 4.37695 3.80196 2.92529 4.3587 1.85651ZM6.66667 1.33333L6.61247 1.33728C6.31558 1.37944 5.89618 1.76097 5.50221 2.54891C5.05268 3.44797 4.7589 4.66422 4.685 6.00015H8.64833C8.57443 4.66422 8.28065 3.44797 7.83112 2.54891C7.41253 1.71172 6.96522 1.33333 6.66667 1.33333ZM8.97424 1.85702L8.9893 1.88483C9.53795 2.95097 9.90373 4.39152 9.98356 6.00029L11.9587 6.00001C11.7304 4.16871 10.5736 2.62575 8.97424 1.85702Z" fill="#00A023"/>
</svg>
