<svg width="14" height="14" viewBox="0 0 14 14" fill="none" xmlns="http://www.w3.org/2000/svg">
<path fill-rule="evenodd" clip-rule="evenodd" d="M7.00016 0.333008C10.6821 0.333008 13.6668 3.31778 13.6668 6.99967C13.6668 10.6816 10.6821 13.6663 7.00016 13.6663C3.31826 13.6663 0.333496 10.6816 0.333496 6.99967C0.333496 3.31778 3.31826 0.333008 7.00016 0.333008ZM7.00016 1.66634C4.05464 1.66634 1.66683 4.05416 1.66683 6.99967C1.66683 9.94519 4.05464 12.333 7.00016 12.333C9.94568 12.333 12.3335 9.94519 12.3335 6.99967C12.3335 4.05416 9.94568 1.66634 7.00016 1.66634ZM7.00016 9.66634C7.36835 9.66634 7.66683 9.96482 7.66683 10.333C7.66683 10.7012 7.36835 10.9997 7.00016 10.9997C6.63197 10.9997 6.3335 10.7012 6.3335 10.333C6.3335 9.96482 6.63197 9.66634 7.00016 9.66634ZM7.00016 2.99967C7.36835 2.99967 7.66683 3.29815 7.66683 3.66634V7.66634C7.66683 8.03453 7.36835 8.33301 7.00016 8.33301C6.63197 8.33301 6.3335 8.03453 6.3335 7.66634V3.66634C6.3335 3.29815 6.63197 2.99967 7.00016 2.99967Z" fill="#00A023"/>
</svg>
