<svg width="21" height="25" viewBox="0 0 21 25" fill="none" xmlns="http://www.w3.org/2000/svg">
<rect x="7.3042" y="20.1572" width="0.570652" height="3.65715" fill="black"/>
<path d="M7.3042 17.1857L7.87485 16.3857V19.5857H7.3042V17.1857Z" fill="black"/>
<rect x="8.5603" y="20.1572" width="0.570652" height="3.77143" fill="black"/>
<rect x="8.5603" y="12.6143" width="0.570652" height="7.08572" fill="black"/>
<path d="M9.70068 1.95508L10.1791 1.64353L11.294 3.36019L10.8156 3.67174L9.70068 1.95508Z" fill="black"/>
<rect x="9.70068" y="12.6143" width="0.570652" height="7.08572" fill="black"/>
<path d="M9.70068 1.18572L10.2713 0.5V11.9286H9.70068V1.18572Z" fill="black"/>
<path d="M10.7285 3.35742H11.2992V11.9289H10.7285V3.35742Z" fill="black"/>
<path d="M8.56006 9.52949L9.13071 8.84375V11.9295H8.56006V9.52949Z" fill="black"/>
<rect x="10.7283" y="12.6143" width="0.570652" height="7.08572" fill="black"/>
<rect x="11.8694" y="11.4717" width="0.570652" height="8.22858" fill="black"/>
<rect x="9.70068" y="20.1572" width="0.570652" height="3.88572" fill="black"/>
<rect x="10.7283" y="20.1572" width="0.570652" height="4.00001" fill="black"/>
<rect x="11.8694" y="20.1572" width="0.570652" height="3.77143" fill="black"/>
<rect x="13.125" y="19.1289" width="0.570652" height="4.68572" fill="black"/>
<rect x="7.3042" y="19.6992" width="0.571429" height="5.93478" transform="rotate(-90 7.3042 19.6992)" fill="black"/>
<rect x="8.5603" y="12.043" width="0.571429" height="3.7663" transform="rotate(-90 8.5603 12.043)" fill="black"/>
<rect x="9.70068" y="4.95703" width="0.571429" height="1.59783" transform="rotate(-90 9.70068 4.95703)" fill="black"/>
<path d="M20.7103 13.986C20.7103 19.6332 16.1386 24.2105 10.5 24.2105C4.8614 24.2105 0.289732 19.6332 0.289732 13.986C0.289732 8.33874 4.8614 3.76141 10.5 3.76141C16.1386 3.76141 20.7103 8.33874 20.7103 13.986Z" stroke="black" stroke-width="0.579465"/>
</svg>
