<svg width="25" height="25" viewBox="0 0 25 25" fill="none" xmlns="http://www.w3.org/2000/svg">
<path d="M4.33113 12C4.17725 12 4.07568 12.16 4.14153 12.2991C4.777 13.6415 7.35314 19.0776 7.75271 19.8294C8.20912 20.6881 8.9698 20.5365 9.32479 19.6778C9.58152 19.0568 10.1035 17.7224 10.3728 17.0314C10.4385 16.8628 10.6718 16.8502 10.754 17.0114C11.112 17.7126 11.8296 19.1248 12.1647 19.8294C12.6211 20.7891 13.4325 20.5365 13.7368 19.8294C13.9744 19.2771 14.212 18.7557 14.3047 18.5537C14.3304 18.4977 14.3304 18.4333 14.3045 18.3774L11.4096 12.1216C11.3752 12.0475 11.301 12 11.2193 12H8.74528C8.59085 12 8.4894 12.1613 8.55624 12.3005L9.48869 14.2424C9.51356 14.2942 9.51608 14.354 9.49568 14.4077L8.99531 15.7248C8.92927 15.8987 8.68641 15.9069 8.60874 15.738L6.94673 12.1221C6.91252 12.0477 6.83811 12 6.75619 12H4.33113Z" fill="url(#paint0_linear_995_13417)"/>
<path d="M23.8058 12.8318C23.8058 18.8928 18.8923 23.8062 12.8313 23.8062C6.77034 23.8062 1.85693 18.8928 1.85693 12.8318C1.85693 6.77083 6.77034 1.85742 12.8313 1.85742C18.8923 1.85742 23.8058 6.77083 23.8058 12.8318Z" stroke="url(#paint1_linear_995_13417)" stroke-width="1.74752"/>
<path d="M6.43604 9.26693C9.37186 5.49229 15.628 5.84179 18.0395 8.25337C20.4511 10.6649 21.255 14.0202 19.3677 16.3968C17.5636 18.6686 14.5096 18.7035 13.4261 16.257C12.8319 14.5095 14.0902 13.461 15.1387 13.426C16.1872 13.3911 16.7813 14.3697 16.5716 15.2434C16.3619 16.1172 14.929 16.0473 14.9639 15.0687" stroke="url(#paint2_linear_995_13417)" stroke-width="1.25821" stroke-linecap="round"/>
<path d="M15.6976 9.61589C15.1384 9.40619 14.6491 9.61589 14.4045 9.9654C14.1598 10.3149 14.4045 10.4547 14.6142 10.4897C14.8239 10.5246 14.719 10.7693 14.9986 10.9091C15.2782 11.0489 15.418 10.8392 15.5928 10.9091C15.7675 10.979 15.9073 11.3634 16.117 10.979C16.3268 10.5945 16.2569 9.8256 15.6976 9.61589Z" fill="url(#paint3_linear_995_13417)"/>
<defs>
<linearGradient id="paint0_linear_995_13417" x1="5.33594" y1="3.7168" x2="19.3359" y2="23.2168" gradientUnits="userSpaceOnUse">
<stop stop-color="#F2E9B6"/>
<stop offset="1" stop-color="#410A07"/>
</linearGradient>
<linearGradient id="paint1_linear_995_13417" x1="5.99951" y1="3.5" x2="18.9995" y2="22.5" gradientUnits="userSpaceOnUse">
<stop stop-color="#F2E9B6"/>
<stop offset="1" stop-color="#410A07"/>
</linearGradient>
<linearGradient id="paint2_linear_995_13417" x1="6.50049" y1="2.5" x2="18.5005" y2="23" gradientUnits="userSpaceOnUse">
<stop stop-color="#F2E9B6"/>
<stop offset="1" stop-color="#410A07"/>
</linearGradient>
<linearGradient id="paint3_linear_995_13417" x1="5.50049" y1="3" x2="18.5005" y2="23" gradientUnits="userSpaceOnUse">
<stop stop-color="#F2E9B6"/>
<stop offset="1" stop-color="#410A07"/>
</linearGradient>
</defs>
</svg>
