<svg width="320" height="469" viewBox="0 0 320 469" fill="none" xmlns="http://www.w3.org/2000/svg">
<g opacity="0.05">
<path d="M6.15346 211.269C3.15269 211.269 1.17223 214.389 2.45617 217.101C14.8478 243.278 65.0826 349.282 72.8742 363.942C81.7742 380.686 96.6075 377.732 103.53 360.987C108.536 348.877 118.714 322.857 123.965 309.381C125.246 306.093 129.796 305.849 131.4 308.991C138.381 322.666 152.374 350.204 158.908 363.942C167.808 382.656 183.63 377.732 189.563 363.942C194.197 353.173 198.83 343.005 200.638 339.067C201.139 337.975 201.139 336.719 200.635 335.629L144.183 213.641C143.514 212.195 142.065 211.269 140.472 211.269H92.2294C89.218 211.269 87.2397 214.414 88.5431 217.129L106.726 254.997C107.211 256.007 107.26 257.172 106.862 258.219L97.105 283.904C95.8172 287.294 91.0814 287.455 89.5668 284.16L57.1577 213.651C56.4906 212.199 55.0395 211.269 53.4422 211.269H6.15346Z" fill="#F2E9B6"/>
<path d="M382.715 231.715C382.715 349.905 286.903 445.716 168.714 445.716C50.5245 445.716 -45.287 349.905 -45.287 231.715C-45.287 113.526 50.5245 17.7145 168.714 17.7145C286.903 17.7145 382.715 113.526 382.715 231.715Z" stroke="#F2E9B6" stroke-width="34.0766"/>
<path d="M43.9941 162.199C101.243 88.5937 223.237 95.4089 270.263 142.435C317.288 189.46 332.964 254.888 296.161 301.232C260.982 345.531 201.428 346.213 180.3 298.505C168.714 264.429 193.25 243.983 213.696 243.301C234.141 242.62 245.728 261.703 241.638 278.741C237.549 295.779 209.606 294.416 210.288 275.333" stroke="#F2E9B6" stroke-width="24.5351" stroke-linecap="round"/>
<path d="M224.601 169.014C213.697 164.925 204.155 169.014 199.384 175.83C194.614 182.645 199.385 185.371 203.474 186.053C207.563 186.734 205.518 191.505 210.971 194.231C216.423 196.957 219.149 192.868 222.557 194.231C225.964 195.594 228.69 203.091 232.78 195.594C236.869 188.097 235.506 173.104 224.601 169.014Z" fill="#F2E9B6"/>
</g>
</svg>
