<svg width="16" height="17" viewBox="0 0 16 17" fill="none" xmlns="http://www.w3.org/2000/svg">
<path d="M2.1816 3.0664C1.5792 3.0664 1.0912 3.544 1.0912 4.1336V12.6664C1.0912 13.256 1.5792 13.7336 2.1816 13.7336H13.8184C14.4208 13.7336 14.9088 13.256 14.9088 12.6664V4.1336C14.9088 3.544 14.4208 3.0664 13.8184 3.0664H2.1816V3.0664ZM13.8184 2C15.0232 2 16 2.9552 16 4.1336V12.6664C16 13.8448 15.0232 14.8 13.8184 14.8H2.1816C0.9768 14.8 0 13.8448 0 12.6664V4.1336C0 2.9552 0.9768 2 2.1816 2H13.8184ZM6.5336 10.9064H3.2C3.12912 10.9056 3.05878 10.9187 2.99298 10.9451C2.92719 10.9714 2.86724 11.0105 2.81656 11.0601C2.76589 11.1096 2.72548 11.1687 2.69766 11.2339C2.66983 11.2991 2.65513 11.3691 2.6544 11.44C2.6544 11.7344 2.8984 11.9736 3.2 11.9736H6.5336C6.60441 11.9743 6.67467 11.9611 6.74037 11.9347C6.80608 11.9083 6.86593 11.8692 6.91652 11.8196C6.96711 11.7701 7.00745 11.7111 7.03522 11.6459C7.063 11.5808 7.07767 11.5108 7.0784 11.44C7.07767 11.3692 7.063 11.2992 7.03522 11.2341C7.00745 11.1689 6.96711 11.1099 6.91652 11.0604C6.86593 11.0108 6.80608 10.9717 6.74037 10.9453C6.67467 10.9189 6.60441 10.9057 6.5336 10.9064V10.9064ZM11 4.6664C9.7808 4.6664 8.788 5.6192 8.788 6.8C8.788 7.4184 9.06 7.9744 9.4952 8.364C8.6712 8.8504 8.1216 9.7264 8.1216 10.7272C8.1216 11.0128 8.1664 11.2936 8.2536 11.5616C8.3456 11.8416 8.6528 11.9968 8.9392 11.9072C9.00679 11.887 9.06967 11.8534 9.12417 11.8086C9.17867 11.7638 9.22369 11.7086 9.25661 11.6462C9.28953 11.5838 9.30968 11.5154 9.3159 11.4451C9.32211 11.3748 9.31426 11.304 9.2928 11.2368C9.23933 11.0722 9.21232 10.9002 9.2128 10.7272C9.2128 9.7872 10.0104 9.0208 11 9.0208C11.9896 9.0208 12.788 9.7872 12.788 10.7272C12.788 10.8656 12.7712 11.0008 12.7376 11.132C12.7207 11.2006 12.7177 11.2718 12.7286 11.3416C12.7395 11.4113 12.7642 11.4782 12.8012 11.5384C12.8382 11.5985 12.8867 11.6507 12.9441 11.6919C13.0014 11.7331 13.0664 11.7625 13.1352 11.7784C13.2743 11.8133 13.4216 11.7921 13.5452 11.7194C13.6689 11.6466 13.7589 11.5282 13.796 11.3896C13.8512 11.1736 13.8784 10.952 13.8784 10.7272C13.8784 9.7264 13.3288 8.8504 12.5048 8.3624C12.94 7.9744 13.212 7.4184 13.212 6.8C13.212 5.6192 12.22 4.6664 11 4.6664V4.6664ZM6.5336 8.1064H3.2C3.12912 8.10556 3.05878 8.11869 2.99298 8.14506C2.92719 8.17143 2.86724 8.21051 2.81656 8.26007C2.76589 8.30963 2.72548 8.3687 2.69766 8.43389C2.66983 8.49908 2.65513 8.56912 2.6544 8.64C2.6544 8.9344 2.8984 9.1736 3.2 9.1736H6.5336C6.60441 9.17434 6.67467 9.16112 6.74037 9.13471C6.80608 9.10829 6.86593 9.06919 6.91652 9.01964C6.96711 8.97009 7.00745 8.91106 7.03522 8.84592C7.063 8.78078 7.07767 8.71081 7.0784 8.64C7.07767 8.56919 7.063 8.49922 7.03522 8.43408C7.00745 8.36894 6.96711 8.30991 6.91652 8.26036C6.86593 8.21081 6.80608 8.17171 6.74037 8.14529C6.67467 8.11888 6.60441 8.10566 6.5336 8.1064V8.1064ZM11 5.7336C11.6216 5.7336 12.1216 6.2136 12.1216 6.8C12.1216 7.3872 11.6216 7.8664 11 7.8664C10.3784 7.8664 9.8784 7.3864 9.8784 6.8C9.8784 6.2128 10.3784 5.7336 11 5.7336V5.7336ZM6.5336 5.3064H3.2C3.12912 5.30555 3.05878 5.31869 2.99298 5.34506C2.92719 5.37143 2.86724 5.41051 2.81656 5.46007C2.76589 5.50963 2.72548 5.5687 2.69766 5.63389C2.66983 5.69908 2.65513 5.76912 2.6544 5.84C2.6544 6.1344 2.8984 6.3736 3.2 6.3736H6.5336C6.60441 6.37434 6.67467 6.36112 6.74037 6.33471C6.80608 6.30829 6.86593 6.26919 6.91652 6.21964C6.96711 6.17009 7.00745 6.11106 7.03522 6.04592C7.063 5.98078 7.07767 5.91081 7.0784 5.84C7.07767 5.76919 7.063 5.69922 7.03522 5.63408C7.00745 5.56894 6.96711 5.50991 6.91652 5.46036C6.86593 5.41081 6.80608 5.37171 6.74037 5.34529C6.67467 5.31888 6.60441 5.30566 6.5336 5.3064V5.3064Z" fill="#00A023"/>
</svg>
