<svg width="14" height="11" viewBox="0 0 14 11" fill="none" xmlns="http://www.w3.org/2000/svg">
<path fill-rule="evenodd" clip-rule="evenodd" d="M11.3333 0C12.4379 0 13.3333 0.895431 13.3333 2V8.66667C13.3333 9.77124 12.4379 10.6667 11.3333 10.6667H2C0.89543 10.6667 0 9.77124 0 8.66667V2C0 0.895431 0.89543 0 2 0H11.3333ZM12 2.21867L7.10567 6.50172C6.87526 6.70332 6.5407 6.72012 6.29294 6.55212L6.22766 6.50172L1.33333 2.21933V8.66667C1.33333 9.03486 1.63181 9.33333 2 9.33333H11.3333C11.7015 9.33333 12 9.03486 12 8.66667V2.21867ZM10.9867 1.33333H2.34533L6.66667 5.11415L10.9867 1.33333Z" fill="#00A023"/>
</svg>
