<svg width="10" height="14" viewBox="0 0 10 14" fill="none" xmlns="http://www.w3.org/2000/svg">
<path fill-rule="evenodd" clip-rule="evenodd" d="M7.33333 0C8.4379 0 9.33333 0.89543 9.33333 2V11.3333C9.33333 12.4379 8.4379 13.3333 7.33333 13.3333H2C0.89543 13.3333 0 12.4379 0 11.3333V2C0 0.89543 0.89543 0 2 0H7.33333ZM7.33333 1.33333H2C1.63181 1.33333 1.33333 1.63181 1.33333 2V11.3333C1.33333 11.7015 1.63181 12 2 12H7.33333C7.70152 12 8 11.7015 8 11.3333V2C8 1.63181 7.70152 1.33333 7.33333 1.33333ZM4.66667 9.33333C5.03486 9.33333 5.33333 9.63181 5.33333 10C5.33333 10.3682 5.03486 10.6667 4.66667 10.6667C4.29848 10.6667 4 10.3682 4 10C4 9.63181 4.29848 9.33333 4.66667 9.33333Z" fill="#00A023"/>
</svg>
