<svg width="16" height="13" viewBox="0 0 16 13" fill="none" xmlns="http://www.w3.org/2000/svg">
<path d="M0 2.5C0 1.96957 0.210714 1.46086 0.585786 1.08579C0.960859 0.710714 1.46957 0.5 2 0.5H14C14.5304 0.5 15.0391 0.710714 15.4142 1.08579C15.7893 1.46086 16 1.96957 16 2.5V10.5C16 11.0304 15.7893 11.5391 15.4142 11.9142C15.0391 12.2893 14.5304 12.5 14 12.5H2C1.46957 12.5 0.960859 12.2893 0.585786 11.9142C0.210714 11.5391 0 11.0304 0 10.5V2.5ZM2 1.5C1.73478 1.5 1.48043 1.60536 1.29289 1.79289C1.10536 1.98043 1 2.23478 1 2.5V3.5H15V2.5C15 2.23478 14.8946 1.98043 14.7071 1.79289C14.5196 1.60536 14.2652 1.5 14 1.5H2ZM15 5.5H1V10.5C1 10.7652 1.10536 11.0196 1.29289 11.2071C1.48043 11.3946 1.73478 11.5 2 11.5H14C14.2652 11.5 14.5196 11.3946 14.7071 11.2071C14.8946 11.0196 15 10.7652 15 10.5V5.5Z" fill="#00A023"/>
<path d="M2 8.5C2 8.23478 2.10536 7.98043 2.29289 7.79289C2.48043 7.60536 2.73478 7.5 3 7.5H4C4.26522 7.5 4.51957 7.60536 4.70711 7.79289C4.89464 7.98043 5 8.23478 5 8.5V9.5C5 9.76522 4.89464 10.0196 4.70711 10.2071C4.51957 10.3946 4.26522 10.5 4 10.5H3C2.73478 10.5 2.48043 10.3946 2.29289 10.2071C2.10536 10.0196 2 9.76522 2 9.5V8.5Z" fill="#00A023"/>
</svg>
