<svg width="250" height="250" viewBox="0 0 250 250" fill="none" xmlns="http://www.w3.org/2000/svg">
<path d="M70 46V37C70 28.1634 77.1634 21 86 21H165C173.837 21 181 28.1634 181 37V80M70 127V158M181 122V94M181 203V212C181 220.837 173.837 228 165 228H86C77.1634 228 70 220.837 70 212V172" stroke="#AAC1BC" stroke-width="5" stroke-linecap="round" stroke-linejoin="round"/>
<circle cx="63.5" cy="86.5" r="39" stroke="#AAC1BC" stroke-width="5" stroke-linecap="round" stroke-linejoin="round"/>
<circle cx="186.5" cy="162.5" r="39" stroke="#AAC1BC" stroke-width="5" stroke-linecap="round" stroke-linejoin="round"/>
<path d="M88 21L101.462 35H149.538L163 21" stroke="#AAC1BC" stroke-width="5" stroke-linecap="round" stroke-linejoin="round"/>
<path d="M152 228V220C152 216.134 148.866 213 145 213H105C101.134 213 98 216.134 98 220V228" stroke="#AAC1BC" stroke-width="5" stroke-linecap="round" stroke-linejoin="round"/>
<line x1="102.5" y1="183.5" x2="134.5" y2="183.5" stroke="#AAC1BC" stroke-width="5" stroke-linecap="round" stroke-linejoin="round"/>
<line x1="148.5" y1="67.5" x2="116.5" y2="67.5" stroke="#AAC1BC" stroke-width="5" stroke-linecap="round" stroke-linejoin="round"/>
<line x1="122.5" y1="197.5" x2="142.5" y2="197.5" stroke="#AAC1BC" stroke-width="5" stroke-linecap="round" stroke-linejoin="round"/>
<line x1="155.5" y1="54.5" x2="135.5" y2="54.5" stroke="#AAC1BC" stroke-width="5" stroke-linecap="round" stroke-linejoin="round"/>
<path d="M194 80H132V94H194" stroke="#AAC1BC" stroke-width="5" stroke-linecap="round" stroke-linejoin="round"/>
<path d="M57 158H119V172H57" stroke="#AAC1BC" stroke-width="5" stroke-linecap="round" stroke-linejoin="round"/>
<path d="M194 80V67L217 86.5L194 106V94" stroke="#AAC1BC" stroke-width="5" stroke-linecap="round" stroke-linejoin="round"/>
<path d="M57 158V145L34 164.5L57 184V172" stroke="#AAC1BC" stroke-width="5" stroke-linecap="round" stroke-linejoin="round"/>
<path d="M67.3333 102C70.55 102 73.3667 100.05 74 97.0003L71.0833 95.5337C70.6667 97.3503 69.55 98.667 67.3333 98.667H59.1667C60.55 97.0003 61.6667 94.767 61.6667 92.0003C61.6667 91.417 61.6167 90.8503 61.5 90.3337H67.3333V87.0003H60.3667C59 84.367 57.3333 83.0003 57.3333 80.3337C57.3338 78.9661 57.8148 77.6422 58.6922 76.5932C59.5696 75.5443 60.7877 74.8369 62.1336 74.5947C63.4795 74.3525 64.8678 74.5909 66.0558 75.2682C67.2438 75.9455 68.1561 77.0187 68.6333 78.3003L71.7167 77.0003C70.3833 73.5837 67.0667 71.167 63.1667 71.167C58.1 71.167 54 75.267 54 80.3337C54 83.3003 55.3167 85.167 56.5 87.0003H54V90.3337H58.1167C58.25 90.8503 58.3333 91.4003 58.3333 92.0003C58.3333 96.5003 54 98.667 54 98.667V102H67.3333Z" fill="#AAC1BC"/>
<path d="M185.111 147.5H184.611V148V150.97C182.55 151.147 180.833 151.73 179.595 152.687C178.249 153.728 177.5 155.192 177.5 156.954C177.5 157.993 177.608 159.11 178.37 160.174C179.124 161.228 180.465 162.157 182.763 162.971L182.777 162.976L182.791 162.98L185.646 163.808L185.657 163.811L185.668 163.814C188.872 164.583 190.364 165.365 191.065 166.063C191.715 166.71 191.722 167.315 191.722 168.046C191.722 168.812 191.47 169.378 191.082 169.814C190.684 170.26 190.123 170.59 189.482 170.83C188.195 171.313 186.711 171.382 186 171.382C183.966 171.382 182.511 171.097 181.581 170.587C181.123 170.336 180.803 170.036 180.596 169.698C180.389 169.36 180.278 168.957 180.278 168.471V167.971H179.778H178H177.5V168.471C177.5 169.68 177.846 171.045 179.023 172.133C180.126 173.152 181.895 173.866 184.611 174.045V177V177.5H185.111H186.889H187.389V177V174.03C189.45 173.853 191.167 173.27 192.405 172.313C193.751 171.272 194.5 169.808 194.5 168.046C194.5 167.007 194.392 165.89 193.63 164.826C192.876 163.772 191.535 162.843 189.237 162.029L189.223 162.024L189.209 162.02L186.354 161.192L186.343 161.189L186.332 161.186C183.128 160.417 181.636 159.635 180.935 158.937C180.285 158.29 180.278 157.685 180.278 156.954C180.278 156.188 180.53 155.622 180.918 155.186C181.316 154.74 181.877 154.41 182.518 154.17C183.805 153.687 185.289 153.618 186 153.618C188.034 153.618 189.489 153.903 190.419 154.413C190.877 154.664 191.197 154.964 191.404 155.302C191.611 155.64 191.722 156.043 191.722 156.529V157.029H192.222H194H194.5V156.529C194.5 155.32 194.154 153.955 192.977 152.867C191.874 151.848 190.105 151.134 187.389 150.955V148V147.5H186.889H185.111Z" fill="#AAC1BC" stroke="#AAC1BC"/>
</svg>
