<svg width="25" height="25" viewBox="0 0 25 25" fill="none" xmlns="http://www.w3.org/2000/svg">
<path d="M4.49519 11.783C4.34131 11.783 4.23975 11.9429 4.30559 12.082C4.94106 13.4244 7.5172 18.8605 7.91677 19.6123C8.37318 20.471 9.13386 20.3195 9.48885 19.4608C9.74558 18.8398 10.2675 17.5054 10.5368 16.8143C10.6025 16.6457 10.8358 16.6332 10.9181 16.7943C11.2761 17.4956 11.9937 18.9078 12.3287 19.6123C12.7851 20.572 13.5965 20.3195 13.9008 19.6123C14.1384 19.0601 14.376 18.5386 14.4687 18.3367C14.4944 18.2807 14.4944 18.2163 14.4686 18.1604L11.5736 11.9046C11.5393 11.8304 11.465 11.783 11.3833 11.783H8.90934C8.75492 11.783 8.65346 11.9442 8.7203 12.0834L9.65275 14.0254C9.67762 14.0772 9.68015 14.1369 9.65974 14.1906L9.15937 15.5078C9.09333 15.6817 8.85047 15.6899 8.7728 15.5209L7.11079 11.9051C7.07658 11.8307 7.00217 11.783 6.92026 11.783H4.49519Z" fill="white"/>
<path d="M23.8062 12.8316C23.8062 18.8926 18.8928 23.806 12.8318 23.806C6.77083 23.806 1.85742 18.8926 1.85742 12.8316C1.85742 6.77059 6.77083 1.85718 12.8318 1.85718C18.8928 1.85718 23.8062 6.77059 23.8062 12.8316Z" stroke="white" stroke-width="1.74752"/>
<path d="M6.43555 9.26668C9.37138 5.49205 15.6275 5.84155 18.0391 8.25312C20.4506 10.6647 21.2545 14.0199 19.3672 16.3966C17.5631 18.6683 14.5091 18.7033 13.4256 16.2568C12.8315 14.5092 14.0897 13.4607 15.1382 13.4258C16.1867 13.3908 16.7808 14.3694 16.5711 15.2432C16.3614 16.117 14.9285 16.0471 14.9634 15.0684" stroke="white" stroke-width="1.25821" stroke-linecap="round"/>
<path d="M15.6972 9.61614C15.138 9.40644 14.6486 9.61614 14.404 9.96564C14.1593 10.3151 14.404 10.4549 14.6137 10.4899C14.8234 10.5248 14.7185 10.7695 14.9981 10.9093C15.2778 11.0491 15.4176 10.8394 15.5923 10.9093C15.7671 10.9792 15.9069 11.3637 16.1166 10.9792C16.3263 10.5947 16.2564 9.82584 15.6972 9.61614Z" fill="white"/>
</svg>
